<?xml version="1.0" standalone="no"?><!DOCTYPE svg PUBLIC "-//W3C//DTD SVG 1.1//EN" "http://www.w3.org/Graphics/SVG/1.1/DTD/svg11.dtd"><svg t="1602493780850" class="icon" viewBox="0 0 1024 1024" version="1.1" xmlns="http://www.w3.org/2000/svg" p-id="7745" xmlns:xlink="http://www.w3.org/1999/xlink" width="200" height="200"><defs><style type="text/css">.dependency{fill:#f0f0f0}</style></defs><path class="dependency" d="M466.328638 743.790744a34.33937 34.33937 0 0 0-34.339369-34.339369H68.678739V68.678739h640.772636v44.641181a34.33937 34.33937 0 0 0 68.678739 0V34.33937a34.33937 34.33937 0 0 0-34.33937-34.33937H34.33937a34.33937 34.33937 0 0 0-34.33937 34.33937v709.451374a34.33937 34.33937 0 0 0 34.33937 34.33937h397.649899a34.33937 34.33937 0 0 0 34.339369-34.33937z" p-id="7746"></path><path class="dependency" d="M989.66063 245.869886H586.516432a34.33937 34.33937 0 0 0 0 68.678739h369.491616v640.772636H314.548625V892.823608a34.33937 34.33937 0 0 0-68.678739 0v94.77666a34.33937 34.33937 0 0 0 34.33937 34.33937h709.451374a34.33937 34.33937 0 0 0 34.33937-34.33937V280.209256a34.33937 34.33937 0 0 0-34.33937-34.33937z" p-id="7747"></path><path class="dependency" d="M164.828974 216.338028l637.338699 637.338699a34.33937 34.33937 0 0 0 48.761904-48.761905L213.590879 167.576123a34.33937 34.33937 0 0 0-48.761905 48.761905z" p-id="7748"></path></svg>