<?xml version="1.0" standalone="no"?><!DOCTYPE svg PUBLIC "-//W3C//DTD SVG 1.1//EN" "http://www.w3.org/Graphics/SVG/1.1/DTD/svg11.dtd"><svg t="1602492820236" class="icon" viewBox="0 0 1024 1024" version="1.1" xmlns="http://www.w3.org/2000/svg" p-id="6572" xmlns:xlink="http://www.w3.org/1999/xlink" width="200" height="200"><defs><style type="text/css">.time{fill:#363636}</style></defs><path class="time" d="M512 1022.060606c281.69697 0 510.060606-228.363636 510.060606-510.060606S793.69697 1.939394 512 1.939394 1.939394 230.30303 1.939394 512 230.30303 1022.060606 512 1022.060606z m0-58.181818c-249.565091 0-451.878788-202.313697-451.878788-451.878788C60.121212 262.434909 262.434909 60.121212 512 60.121212c249.565091 0 451.878788 202.313697 451.878788 451.878788 0 249.565091-202.313697 451.878788-451.878788 451.878788z" p-id="6573"></path><path class="time" d="M326.120727 363.368727l166.787879 174.545455a29.090909 29.090909 0 1 0 42.061576-40.192l-166.787879-174.545455A29.090909 29.090909 0 0 0 326.120727 363.364848z" p-id="6574"></path><path class="time" d="M876.625455 665.755152l-347.849697-172.070788a29.090909 29.090909 0 1 0-25.79394 52.146424l347.845818 172.070788a29.090909 29.090909 0 0 0 25.79394-52.150303z" p-id="6575"></path></svg>