<?xml version="1.0" encoding="utf-8"?>
<!-- Generator: Adobe Illustrator 24.2.0, SVG Export Plug-In . SVG Version: 6.00 Build 0)  -->
<svg version="1.1" id="图层_1" xmlns:xml="http://www.w3.org/XML/1998/namespace"
	 xmlns="http://www.w3.org/2000/svg" xmlns:xlink="http://www.w3.org/1999/xlink" x="0px" y="0px" viewBox="0 0 500 500"
	 style="enable-background:new 0 0 500 500;" xml:space="preserve">
<style type="text/css">
	.st0{fill:#F4204E;}
	.st1{fill:#021D46;}
	.st2{font-family:'SourceHanSansCN-Medium-GBpc-EUC-H';}
	.st3{font-size:54px;}
	.st4{letter-spacing:1;}
	.st5{font-family:'SourceHanSansCN-Normal-GBpc-EUC-H';}
	.st6{font-size:30px;}
</style>
<g>
	<path class="st0" d="M398.5,187.9c-0.2-0.2-1.5,0.3-1.4-1.2C396.8,186.8,398.2,185.4,398.5,187.9z M392.3,163l0.6,0.3l-1.9-3.2
		L392.3,163z M389.9,153.1l-0.3,0.7l2.1,1.4c-0.7-2.3-1.6-5-2.5-7.4c-1-2.4-1.7-4.7-1.9-6.4C385.7,144,389.8,149,389.9,153.1z
		 M388.3,130.6c-0.2-0.5-0.4-1.1-0.8-2.2c-0.5,1-1.6-2.2,0.8,2.7C388.3,130.9,388.3,130.8,388.3,130.6z M388.3,130.6
		C389.3,132.8,388.4,128.9,388.3,130.6L388.3,130.6z M385.4,120.5c-1.7-2.8-1.9-2-1.9,0l2,2.6C385.7,122.3,384.6,119.7,385.4,120.5z
		 M381.8,119.8c0.1-0.3,0-0.8-1-1.3c0,0,0.3,0.3,0.5,0.7C381.6,119.5,381.8,119.8,381.8,119.8z M382.7,121.2c-0.7,0,0.1,0.4,1.2,1.5
		l-2-2.9C381.7,120.4,381.1,120.7,382.7,121.2z M383.4,126c1.3,2.7,2.1,3.7,2.4,3.4c0.2-0.3,0-2.1-1.4-4.8
		C384.7,126.4,385.2,128.7,383.4,126z M386,145c-0.3-0.4-0.5-1.5-0.6-2.5c-0.2-1-0.4-1.7-0.7-1.6c0,0,0,0.6,0.1,1.2
		c0,0.6,0,1.2,0,1.2L386,145z M375.1,105.5c0.4,0.4,0.8,0.9,0.8,0.9c-0.3-1.2-1.3-3.3-0.8-3.8c-0.5,0.1-0.5,1.6-0.8,2.1
		C374.2,104.6,374.6,105.1,375.1,105.5z M374.2,104.6l-2.5-2.5C373.3,104.8,373.9,105.1,374.2,104.6z M380.4,121.2
		c1,1.1,1.9,2.2,1.9,2.2s-1.1-1.4-2.2-2.7c-0.5-0.7-1.1-1.3-1.5-1.8s-0.7-0.8-0.7-0.8l0.5,1C378.4,119.1,379.5,120.1,380.4,121.2z
		 M368.5,91.9c0.5,0.3,1,0.5,1,0.5s-0.8-0.5-1.7-1c-0.9-0.5-1.7-0.9-1.7-0.9l1.4,0.9C367.5,91.4,368,91.7,368.5,91.9z M361.8,84.5
		c1.6,0.6-0.2-2.5,1.2-1.7c-1.7-1.8-3.7-2.9-5.4-3.8C359.2,80.3,360.5,82,361.8,84.5z M354.7,77.5c0.8,0.6,1.8,1.1,2.9,1.6
		C356.7,78.5,355.8,77.9,354.7,77.5z M368,94.1l-0.3,1.9c0.2,0.3,0.5,0.7,0.8,1.1C368.6,96.7,368.9,95.9,368,94.1z M367.8,96
		L367.8,96c-0.8-1.3-1.4-2.1-1.7-2.5C366.3,93.8,366.8,94.6,367.8,96z M368.7,97.4c-0.1-0.1-0.1-0.2-0.2-0.3
		C368.5,97.3,368.5,97.3,368.7,97.4z M371.9,110c1.5,0.8,0.9-1.5,3.3,0.6C373.6,109.2,370.9,106,371.9,110z M368.4,99.7
		c0,0,0.5,0.8,0.9,1.6c0.4,0.8,0.9,1.6,0.9,1.6c0.2-0.2,0.3-1.1,1.2-0.4c0,0-0.7-0.7-1.4-1.4c-0.4-0.4-0.7-0.7-1-1
		C368.6,99.8,368.4,99.7,368.4,99.7z M367,98.4l1.4,1.2l-0.7-1.2H367z M358.1,83c-0.7-0.4-1.4-0.9-2-1.6c-0.7-0.6-1.3-1.2-2-1.9
		c1.3,1.7,2.6,3.4,4,5C358.5,84.5,359.6,84.7,358.1,83z M362.9,89.3c-0.1-0.1-0.2-0.2-0.3-0.2C362.7,89.3,362.7,89.5,362.9,89.3z
		 M339.9,66.2c0,0.1,0.1,0.2,0.1,0.4c0.1,0,0.1-0.1,0.2-0.1L339.9,66.2z M358,85c0.8,1.4,1.7,1.9,2.6,2.3c-0.9-0.8-1.8-1.7-2.6-2.7
		C357.8,84.6,357.7,84.6,358,85z M350.5,74c0.4,0.8,0.9,1.6,1.5,2.5C351.7,75.6,350.9,74,350.5,74z M362.6,88.4
		c0.1,0,0.1,0.1,0.2,0.2C362.6,88,362.6,88.1,362.6,88.4z M362.6,88.4c-0.7-0.5-1.3-0.8-1.9-1.2c0.7,0.7,1.3,1.3,2,1.8
		C362.6,88.8,362.5,88.6,362.6,88.4z M344.8,70.7c0.5,0.5,0.8,0.8,0.8,0.8l-0.5-0.2l1.2,0.9c-1.1-1.4-1.7-2.5-2.8-4.7
		c-2.3-1.2-3-1.2-3.3-1c0,0,1.4,1.2,2.7,2.5C343.6,69.6,344.3,70.2,344.8,70.7z M351.2,76.9c-1.7,0-4.7-2-4.1,0.5
		c3.1,3,2.9,1.4,5.1,2.9c-5.1-4.9,1.9,1-1.1-3.2c1.1,0.9,2,1.7,2.9,2.5c-0.8-1-1.5-2.1-2.1-3.1c0,0.1,0,0.1,0.1,0.2l0,0l0,0
		c0.1,0.3,0.1,0.5-0.1,0.2l-0.1-0.1C351.6,76.8,351.4,76.9,351.2,76.9c-1.2-1.7,0-0.5,0.6-0.1c0.1,0,0.1,0,0.2-0.1l0,0
		c0,0-1.3-1.2-2.8-2.3c-1.4-1.1-2.8-2.2-2.8-2.2C347.3,73.4,348.7,74.6,351.2,76.9z M367.6,108.3c0-0.2,0.1-0.3,0.1-0.3
		C367.4,107.7,367.2,107.6,367.6,108.3z M367.8,108c0.8,0.6,2.6,2.4,1.5-0.5l-0.4-0.3c-0.9-2-1.4-4.9-1.4-5.9
		c-0.4,1.2-0.7,2.3-0.7,4.3c0.4,0.3,1.1,0.4,1.8,1.8C369.1,108.7,368.1,107.7,367.8,108z M367.5,101.3c0-0.1,0.1-0.2,0.1-0.3
		C367.5,100.9,367.5,101,367.5,101.3z M357.4,88.9c-1.1-1-2.1-2-2.1-2l1.1,2.9l0.4-0.5c1.9,2.7,2,1.6,2.7,1.6c0,0-0.3-0.3-0.6-0.6
		C358.4,89.9,357.9,89.4,357.4,88.9z M341.3,64.8c0,0-1-0.2-2-0.4c-1-0.2-2-0.3-2-0.3l2.4,1.2L341.3,64.8z M334.6,59.9
		c0,0-0.5-0.2-1-0.3c-0.5-0.2-1-0.3-1-0.3l1.1,1.4L334.6,59.9z M150.1,54.5l1.4,0.7c1.4-1.2,2.6-1.8,3.7-2.2
		C152.5,53.4,149.1,53.5,150.1,54.5z M261.2,31.2c-2.1-0.8-3.8-1.2-5.3-1.5C258.4,30.8,260.3,32.2,261.2,31.2z M100.4,264
		c0.7,0.8,1.2,1.1,1.4,0.9C101.1,264.1,100.5,263.7,100.4,264z M255.8,29.7c-1.9-0.8-4.1-1.3-6.3-0.5c0.4,0.2,0.8,0.3,1.1,0.4
		C252.3,29.5,253.9,29.4,255.8,29.7z M393.8,211.7c0.2-0.5,0.3-1.4,0.3-3C394.1,209.5,393.9,210.6,393.8,211.7z M307.3,44.1
		C308.9,44.7,307.6,44,307.3,44.1L307.3,44.1z M312,52.2c-0.4,0-0.7,0-0.9,0.3C311.4,52.3,311.7,52.2,312,52.2z M309.3,45.7
		c-0.5-0.4-1-0.9-1.7-1.3C307.9,44.6,308.4,45,309.3,45.7z M309.3,45c0.5,0.3,0.9,0.5,1.2,0.8C310.8,45.7,310.7,45.5,309.3,45z
		 M307.3,44.1c-0.4-0.2-1.1-0.4-2.1-0.9c0.9,0.4,1.6,0.8,2.4,1.2C307.3,44.2,307.2,44.1,307.3,44.1z M392.3,210.3
		c-0.3,0.8-0.5,1.3-0.5,1.3c0.8-0.2,1.6,1.5,2.1,0.1c-0.4,2.2-0.6,4.2,0.9,1.4c-4.1,10.4-7,20.8-10.7,31.1
		c-3.7,10.2-8.3,20.3-15.2,28.5c-0.6,1.3,0.4,1,1,0.8c-1.8,1.2-2.1,2.1-2.2,2.9c0,0.9,0.3,1.7-0.2,2.7c0,0-1.4,0.8-2.8,1.6
		c-0.7,0.4-1.4,0.8-1.9,1c-0.5,0.3-0.9,0.5-0.9,0.5c-0.8,2.3,1,1.4,1.3,1.8c-1.6,2.2-3.3,4.4-5.2,6.3c-0.9,1-1.9,1.9-2.8,2.8
		s-1.9,1.8-2.9,2.6c-1.9,1.7-3.7,3.4-5.5,5c-1.7,1.7-3.3,3.4-4.8,5.1c-2.7,1.1-0.9-2-3.9,0.1c2.8-0.6,1,1.5-1.2,3.4
		c-2.2,2-4.6,4-2.7,3.8c-2.3,0-5.1,1.7-7.4,3.1c-2.3,1.3-4.3,1.9-4.7-0.2c-3.8,2.1-2.1,3.4-0.9,3c-2.2,1.4-4.2,2.4-6,3.6
		c-0.9,0.6-1.8,1.2-2.6,1.9c-0.9,0.6-1.7,1.3-2.5,2.1c-0.7,0.1-2.4,0.9-4.5,2c-2.2,1-4.9,2.3-7.7,3.5c-5.6,2.3-11.7,4-14.3,3.2
		c3.5,1,0.1,1.1-2.6,2.7l3.1,0.9c0,0-1.7,0.4-3.3,0.8c-0.8,0.2-1.7,0.4-2.3,0.6s-1,0.2-1,0.2c-1.3,0.5-1.7,0.5-1.7,0.3
		c-1.1,0.2,0-1-2.9-0.8c-2.2,0.5-3.4,0.9-4.3,1.4s-1.5,1.1-2.6,1.7l0.7,0.1l-3.1,0.7c-2.3,0.4,7.8-3.1,0.2-2.7
		c0,0.6-4.1,3.4-6.3,2.4c3.8-0.4,3.2-1.5,1.7-1.9c0,0-1.3,0.1-2.7,0.3c-0.7,0.1-1.3,0.1-1.8,0.2s-0.8,0.1-0.8,0.1s0.5,0.5,1,1
		s1,1,1,1c-7.7,0.7-15.7,0.7-23.7-0.1c-8-0.8-16-1.9-24.1-3.5c0.6-1.8-11.3-2.7-9.1-5.1l0.5,0.4c2,0.4,1.8-0.3,0.8-1
		c-1-0.8-2.9-1.7-4.5-2c3,1.8-6.6,1.1,1.2,3.7c0,0-1.6-0.1-3.3-0.2c-1.6-0.1-3.3-0.3-3.3-0.3c-2.5,2-6.7,0.6-11.3-1.9
		c-4.6-2.4-9.4-5.9-14.2-7.4c0.7,0.1,1,0,1.2-0.2c-2.2-0.6-4.2-1.6-6.2-2.8c-1-0.6-1.9-1.2-2.8-1.8c-0.9-0.7-1.7-1.3-2.5-2
		c-3.2-2.5-5.4-4.9-6.5-5.1l0.2-1.7c-3.7-1.2-5.7-2.1-7.6-3.3c-1.9-1.2-3.7-3-6.7-6.2c0.3-0.1,1.3,0.2,0.5-0.9
		c-1.2-0.3-2.3-0.6-3.7-1.4s-3.1-2-5.1-4.4l0.5-0.1c0,0-1.7-1.7-3.4-3.4c-0.8-0.8-1.6-1.7-2.2-2.4c-0.6-0.7-1-1.1-1-1.1
		c0.9-0.7,0.5-1.8-0.5-3s-2.5-2.7-4.2-4.2s-3.2-3.2-4.3-4.9c-1-1.6-1.6-3.1-0.9-4.5c-1.1-0.4-2.6-2-4.2-3.8s-3-3.9-4.1-5.1
		c0.2-0.1,0.2-0.4,0.2-0.9c-2-1-3-3.5-3.9-6.1s-1.2-5.4-2.2-7.2c-1.6-2.2-1.9-0.8-2.1,0.6c0-0.7-0.2-1.4-0.4-2.1
		c-0.2-0.7-0.5-1.5-0.8-2.2c-0.7-1.5-1.6-3-2.5-4.3c-1.7-2.8-3.4-5.2-3.3-6.3c-1-3.8,1.3-1.9,1.9-3.2c-2-5.4-3.8,2.1-4.1-5.9
		c0.4,0.8,1,2.4,1.1,1.7c-0.3-1.5,0.7-3.8,1.5-6.1c0.8-2.2,1.3-4.4,0.6-5.7l-0.5,2c-1.1-2.5-0.7-5.7-0.4-8.3c0.4-2.6,0.6-4.6-1-4.9
		l-1.4,0.7c0.2-2.3,0.2-3.7,0.2-4.6c0-0.9-0.1-1.4-0.2-1.9s-0.3-1-0.3-1.9s0-2.3,0.4-4.6l0.2,0.1c-0.4-4,1.3-6.1-0.9-8.1v1.6
		c0-2.5,0-3.8,0.1-5.2c0-1.4,0.2-2.7,0.5-5.3c-0.2-0.6-0.3-3.1,0.2-3.7c-1-0.2-0.8-3.2-0.4-6.4c0.1-0.8,0.2-1.6,0.4-2.4
		c0.2-0.8,0.4-1.5,0.5-2.2c0.3-1.4,0.6-2.5,0.7-3c-0.4,4,0.7,2.3,1.7,1.3c-0.6-1.3-0.8-2.4-0.7-3.5c0.2-1.1,0.7-2.3,1.6-3.7
		c-1.1-0.5-2.3-1.1-3-2.3c-0.3-0.6-0.6-1.4-0.6-2.5c0-1,0.2-2.3,0.6-3.9c0.1,1.1-0.2,2.7,0.5,2.2s0.6-2.1,0.5-2.7
		c0.7-0.5,0.4,1.6,1.5,1.2c-0.5-2.4,0-4.3,0.8-6.3c0.9-2,1.8-4.2,2.7-7.3c-0.1,2.2,1,0.7,2.1,0.3c-1.2-0.7,0.2-2.6,1.3-4
		c1.2-1.5,2.1-2.6,0-2.2c3.4-5.4,7.1-12.3,10.7-18.3c1.9-2.9,3.6-5.7,5.3-7.7c1.7-2.1,3.1-3.6,4.3-4.2c1.6-0.4,2.4-4.1,3.7-5.8
		l0.7,1c1.1-3,1.7-4,2.4-5.1c0.4-0.6,0.7-1.2,1.2-2c0.5-0.9,1.1-2,2-3.7c-1,3.1,0.3,2.7,3.2,1.3c0,0,0.4-1.3,0.8-2.6
		c0.4-1.3,0.9-2.6,0.9-2.6l2,0.7c0.9-1.9,2.7-3.2,4.6-4.4c0.1-1.3,1.3-3,2.7-4.7c1.7-1.9,3.6-3.6,3.7-4.5c1.6,0.3,2.7-0.7,3.7-1.6
		c1-1,2-1.9,3.3-1.4c0.4-0.7,1-1.5,1.7-2.2c-1.5-0.3-2.5-1.1-0.5-1.8c0.1-0.1,0.2-0.2,0.4-0.3l1.5,0.7c1.5-1.4,3.2-2.7,4.3-3.4
		c-0.6,0.2-1.3,0.4-2.1,0.5c0.9-0.3,1.7-0.5,2.5-0.7c0.2-0.1,0.5-0.3,0.6-0.3c-0.1,0.1-0.2,0.2-0.3,0.3c1.3-0.3,2.4-0.8,3.7-2.1
		c1.8-0.4,3.5-1.2,5.2-2.2s3.3-2.3,5-3.4s3.5-2.3,5.3-3.1c1.9-0.8,3.9-1.3,6-1.3c-1.2,0.1-2.8,0.6-3,1.3c1.5-0.6,3.1-1.2,4.6-1.6
		c1.6-0.4,3.1-0.7,4.6-1c2.9-0.7,5.5-1.1,7.4-2.2l-0.6-1.2c1.1-0.5,2.2-0.9,3.2-1.3c1-0.4,2-0.7,3-1c2-0.6,3.8-1.2,5.7-1.5l-0.1-1.5
		c1.4-0.1,3.2-0.5,5.2-0.9c2-0.5,4.1-0.8,6.2-1.2c1.1-0.2,2.1-0.3,3.1-0.4s2-0.1,2.8,0c1.8,0.1,3.2,0.4,4.1,1.1
		c0.7-0.7,2.6-0.6,4.9-0.5c2.2,0.1,4.6,0.3,6.3,0.2l0.8,1.2c2.1,0.2,3.8,0.3,5.3,0.2c1.5,0,2.8-0.1,4-0.2c4.2,1.5,8.2,2.1,12.1,2.3
		c3.9,0.4,7.8,0.5,11.4,1.5v0.3c0,0,1.9,0.2,3.8,0.4c1.9,0.3,3.8,0.6,3.8,0.6c-2.2,0.5,1.6-0.3,3.8,0.6c2.5,0.2,6.1,1.7,8.5,3.4
		l4.5,1.8c-5.3-1.2-0.3,1.7-0.5,3.1c0,0,0.8,0,1.6,0.1c0.8,0.1,1.6,0.1,1.6,0.1c0.9,1.1-2.2,0.2-0.3,1.4c1.1,0.1,3,0.8,4.9,1.3
		c1.9,0.6,3.8,1.3,5,1.1c-0.1-0.4-0.6-1.1-1.3-1.7c-0.3,0-0.2-0.1-0.1-0.1c-0.1-0.1-0.1-0.1-0.2-0.2c0.1,0.1,0.1,0.1,0.2,0.2
		c0.3,0,0.8,0,1-0.1c3.3,2,2.3,0.9,2.4,0.3c1.5,1.9,2.8,2.9,4.1,3.9c1.2,1,2.4,1.9,3.1,3.8c-2.3-4.8,8.4,5.3,7.5,1.6
		c1.5,3.6,1.8,1.4,2.4,4.1c-1.7-1.6-3.7-2.6-5.8-3.3s-4.2-1.2-6-1.7c0,0,0.2,0.2,0.4,0.4c0.2,0.3,0.5,0.6,0.8,1
		c0.6,0.7,1.1,1.5,1.1,1.5c-0.8,0.2-1.6,0-2.3-0.4c-0.8-0.4-1.5-1-2.3-1.7c-1.5-1.3-2.8-2.8-3.9-3c1.5,0.2,4,2.3,3.8,2.8l0.1-2.1
		c-1-0.8-2-1.4-3-2c-1-0.5-2.1-0.9-3.1-1.2c-2-0.6-4-1-5.8-1.3c2.8,1.9-4.2-0.7-2.5,1.5l2.5,0.9c0.2,0.3,0.2,0.5-0.1,0.6
		c6.3,3,12.4,6.5,18.2,10.4l-1.6-1.4l1.8-0.3l-0.1,1.7c1.9,1.3,3.9,2.6,5.7,4c1.5-1,6.7,2.2,6.1,0.1c0.7,1,0.7,1.5,1.1,2.1
		s1.1,1.3,3,2.6c3,1.1-1.5-3.9-2.1-5.1c3.3,1.7,3.6,1.4,4,1c0.9,3.6,0,7.7-2.8,6.7c1.2,1,2.4,2.1,3.5,3.2c-0.5-0.9,0.7-0.3,2,0.9
		l-0.4,0.6c-0.1,0-0.1-0.1-0.2-0.1c29.2,27.6,47.5,66.6,47.5,110c0,2.9-0.1,5.8-0.3,8.6c0.1-0.2,0.3-0.3,0.4-0.5
		c1.4-1.6,2.7-2.9,3.8-1l-0.3-2.9c0.9,0.5,1,2.7,0.8,5.1c-0.2,2.3-0.3,4.7,0.6,5.7c0,0-0.1,0.6-0.4,1.4c-0.3,0.8-0.7,1.9-1.1,3
		C392.9,208.4,392.6,209.5,392.3,210.3z M91.5,153.5c-0.4-0.1-0.8,0.2-1.2,1c0.1,0.3,0.1,0.8,0.2,1.2c-0.6-1.2-1.1-2-1.5-1.3
		c0,0,0,0.4-0.1,1c0,0.6-0.1,1.4-0.1,2.2c0,1.6,0,3.2,0,3.2c0.3-0.6,1-1.3,1.7-2.2c0.1-0.5,0.2-0.9,0.3-1.4
		c-0.1-0.5-0.1-1.1-0.2-1.6c0.1,0.3,0.2,0.5,0.4,0.8C91,155.5,91.2,154.5,91.5,153.5z M129.9,83c-0.9-0.6-1.7-1.1-1.9-1.8
		c0,0-0.1,0.9-0.4,2.3c-0.1,0.7-0.2,1.5-0.3,2.3C128.1,84.9,129,83.9,129.9,83z M136.4,72.3c-0.1-0.2-0.1-0.4-0.1-0.6
		C135.6,72.3,136.1,72.1,136.4,72.3z M179.9,43.9c0,0-0.3,0.2-0.7,0.5s-1,0.6-1.5,1c-1.1,0.8-2.1,1.6-2.1,1.6l-1.6-0.4
		c-2.6,1.8-4.5,4.8-5.7,7.6c2.5-1.3,5-2.5,7.5-3.7C177.5,47.8,179,45.3,179.9,43.9z M212.7,39c-0.1-0.2-0.3-0.4-0.7-0.6
		c-1-0.4-3.6-0.8-5.9-0.9c-2.4-0.1-4.6-0.2-4.9-0.2c-0.5,0.8-0.5,2.4,0,4.2c1.8-0.4,3.5-0.9,5.3-1.2l0.2-2.4l0.6,2.2
		C209.1,39.6,210.9,39.3,212.7,39z M233.2,36.9c-0.4-0.3-0.9-0.8-0.8-1.3c-1.2,0.2-2.5,0.8-3.7,1.5C230.2,37,231.7,36.9,233.2,36.9z
		 M290.1,38.4h0.1C288.6,37.5,287.8,37,290.1,38.4z M275.1,340.1l1.1,0.1C276.8,339.7,277.4,339.2,275.1,340.1z M289.4,40.1
		c-4-2.4-6.1-2.1-8.4-1.8c-1.1,0.2-2.3,0.4-3.9,0.3c-1.6,0-3.5-0.2-6.1-0.9c-0.5,0.1,0.1-0.3,0.2-0.7s-0.5-1.1-3.4-1.2
		c-1.9,0-3.6,0.1-5.2,0.2c-1.6,0.2-3,0.6-4.1,1c-0.7,0.3-1.3,0.5-1.8,0.8c7.3,0.9,14.4,2.2,21.3,4.1c-0.6-0.3-1-0.5-1.3-0.8
		c1.5,0.9,4.6,1.4,6.2,1.2l-3.5-1.8c1.5,0.4,2.8,1.2,4.2,1.9c1.4,0.8,3,1.6,5.3,2.1C288.5,43.2,292.3,42.8,289.4,40.1z M331.2,68.4
		c0,0-0.1-0.1-0.3-0.1C331,68.3,331.1,68.3,331.2,68.4L331.2,68.4z M336.6,72.8c-0.4-0.7-0.9-1.3-1.4-1.8c-0.6-0.6-1.3-1.1-2-1.4
		c-0.4-0.2-0.7-0.3-1-0.5C333.7,70.4,335.2,71.6,336.6,72.8z M322.4,51.6c0.1,0.1,0.2,0.1,0.2,0.1C322.5,51.6,322.5,51.6,322.4,51.6
		z M321.9,52.2c0.1-0.3-0.1-0.9,0.4-0.7c-0.3-0.2-0.8-0.4-1.3-0.6c-0.8-0.4-1.6-0.7-1.6-0.7C320.9,51,321.3,51.5,321.9,52.2z
		 M322.8,57.5c-0.5,1.2,1.7,1.9,3.7,3.2c-0.1-0.1-0.2-0.2-0.3-0.2C327.7,59.5,325.3,58.4,322.8,57.5z M328.8,62.3
		c0.6-0.4-0.7-0.6-1.8-1.3C327.6,61.4,328.3,61.8,328.8,62.3z M302,42.7c0.9,0.8,1.3-1.1,1.7-0.4c0.9-0.4-1.1-0.8-2.5-0.9
		C299.8,41.5,298.9,41.8,302,42.7z M306.5,51.6l3.2,2.1c0.1-0.3,0.6-0.2,1.2,0C308.8,52.6,306.6,51.2,306.5,51.6z M313.7,55
		c-0.6-0.3-1.8-1-2.8-1.3C311.9,54.3,312.9,54.9,313.7,55z M263.7,37.9c-0.5,0.4,0.6,0.9,2.1,1c1-0.2,2.6-0.1,2.1-0.7L263.7,37.9z
		 M396.9,197c0,0,0.2-0.8,0.4-1.6c0.2-0.8,0.4-1.6,0.4-1.6l-1.1,2.1L396.9,197z M396.8,189.9l-1.7-2c0.1,0.7,0.2,2.2-0.3,2.7
		L396.8,189.9z"/>
	<path class="st1" d="M409.7,25C316.4,56.8,219,56.8,123.6,25c0,9.1,0,18.2,0,27.3c9.1,3.4,18.1,6.2,26.9,8.5v23h35.2v16.6h-6.2v6.2
		H163V119h22.8v174.1h14.5V119H333v174.1h16.5V119h16.6v-12.4h-8.3v-6.2h-8.3V83.8h33.2V61.3c9.2-2.4,18.2-5.3,26.9-9
		C409.7,43.2,409.7,34.1,409.7,25z M200.3,83.8h8.3V69.7c15.8,1.1,31.6,1.5,47.7,1.7v35.1h-47.7v-6.2h-8.3L200.3,83.8L200.3,83.8z
		 M333,83.8v16.6h-6.2v6.2h-49.7V71.4c16.5-0.3,33.2-0.6,49.7-1.7v14.1H333z"/>
	<path class="st1" d="M300.2,203.3c-0.5-0.2-6.9-0.6-15.4-0.8c-0.1-0.4-0.2-0.8-0.3-1c-0.2-0.5-0.4-1.6-0.5-2.9
		c7.9-3.4,13.5-5.6,13.8-5.8c0.6-0.3,0.8-2.5-0.9-2.3c-0.7,0.1-6.2,2.3-13.2,5.3c-0.1-2.5-0.1-5.2,0.1-6.7c0.3-3-0.4-14.6-0.8-14.6
		s0.3-3.4-0.4-4.2c-0.8-0.8-6.1-2.6-6.1-2.6l-3.2-4.2l-2.1-1.3l0.4-0.8l1.2-2.1c0,0,2.8-2.5,3.3-4c2.9-0.1,10.9-0.9,10.9-0.9
		l3.5-1.7l-13.5-9.2l-8-4.9l-7.8,4.2l-12.5,9.6l5.1,1.4c0,0,6.8-0.4,8.3-0.1c0.2,0,0.6,0.1,1.1,0.2c0.1,0.9,0.4,2.2,0.7,2.8
		c0.6,0.9,1.1,1.7,1.1,1.7l0.2,2.4l-2.4,0.3l-2.9,3.8c0,0-8.7,0-9.1,0.4c-0.4,0.4-1.3,2.2-1.3,2.2l1.2,4.5c0,0-1.2,6.8-1.4,8.7
		s0,6.7,0,6.7s-0.2,4.3-0.6,5.7s1.7,4.2,1.7,4.2l1.7,6.8l-0.1,0.4c-8.7,1.1-15.1,2.3-15.1,2.3l1.3,2.7c0,0,5.6-1.1,13.4-2.1
		l-0.4,2.8c-12.1,6-28,15.8-27.8,16.2c0.3,0.7,1.2,2.3,1.5,2.5c0,0,10.2-7.5,25.7-15.4c-0.4,1.6-3.9,14-3.9,15.9
		c-0.1,2-0.7,8.9-0.7,8.9l-2.3,7.2c0,0-1.4,1.3-1.3,1.9c0.1,0.6,1.2,4.8,2.1,5.4c0.9,0.6,0.3,1.7,0.3,1.7l-0.8,2.2
		c0,0,1.1,1.4,2.8,2.7c1.7,1.3,0.4,2.6,0.4,2.6s-1.4,3.6-1.9,4.7s-2.2,4.3-2.2,4.3s-1.2,1.8,0.4,2.4c1.6,0.6,4.6-0.2,5.6-1.7
		c1.3-1.9,1.3-3.4,2.2-4c0.8-0.6,1-2.8,1-2.8s-0.6-3.7,0.2-4.5s14.6-0.7,14.6-0.7s1.9-0.3,2.3-0.8c0.4-0.4,0.5-6.6,0.5-6.6l1.1,5.6
		l3,0.7c0,0-0.5,2-0.9,2.2s-0.8,3.8-0.6,4.5c0.2,0.7,2.7,1.4,3.8,1.4s1.5-0.1,3-0.1s2.1,0.9,4.6,0.9c2.6,0,5.2-0.3,4.9-1.6
		c-0.3-1.3-4.2-1.1-7-3.8c-2.7-2.6-2.6-3.1-2.6-3.1l0.2-1.5c0,0,4.7-1.9,5.2-3.3c0.4-1.4-1.1-7.5-1.3-8.7c-0.2-1.3,1.6-2.1,1.9-3.7
		c0.3-1.6-1.7-14.9-2.6-16.7s3.2-4.7,3.2-4.7s0.2-6.1-0.1-9.3c-0.2-1.7-0.3-3.7-0.6-5.5c8.3,0.1,14.5,0.4,14.7,0.4
		C300.7,205.7,301.8,203.8,300.2,203.3z"/>
	<path class="st1" d="M275.9,316.9c51.3,0,99.4,5.2,140.7,14.3c-27.9-17.1-80.4-28.6-140.7-28.6s-112.7,11.5-140.6,28.6
		C176.6,322.1,224.6,316.9,275.9,316.9z"/>
	<path class="st1" d="M164.5,218.6c-0.4-0.5-1-0.8-1.7-0.7l-7.7,1.3c-0.4-1.2-0.9-2.5-1.6-3.6l-0.4-0.8l5.6-3.1
		c0.8-0.5,1.1-1.5,0.7-2.3c-0.4-0.8-1.5-1.1-2.3-0.7l-5.6,3.1l-2.4-4.4l4.9-5.5c0.4-0.5,0.5-1.2,0.3-1.8l-3.5-9.2
		c-0.3-0.9-1.3-1.3-2.2-1s-1.3,1.3-1,2.2l3.1,8.2l-3.4,3.8l-2.6-4.6c-0.5-0.8-1.5-1.1-2.3-0.7l-1.9,1.1c-3.1-4.5-8.1-7-13.3-7.1
		c-1.1-2.9,0.1-6.3,2.9-7.8c0.8-0.5,1.1-1.5,0.7-2.3c-0.4-0.8-1.5-1.1-2.3-0.7c-4,2.2-5.9,6.9-4.7,11.1c-1.7,0.3-3.4,0.9-5,1.8
		c-1.7,0.9-3.1,2.1-4.3,3.5c-3-3.3-7.9-4.2-12-2c-0.8,0.5-1.1,1.5-0.7,2.3c0.5,0.8,1.5,1.1,2.3,0.7c2.9-1.6,6.4-0.7,8.3,1.9
		c-2.5,4.4-3,9.9-0.9,14.8l-1.9,1.1c-0.8,0.5-1.1,1.5-0.7,2.3l2.6,4.6l-5.1,0.9l-5.5-6.9c-0.6-0.7-1.7-0.9-2.4-0.3
		c-0.7,0.6-0.9,1.7-0.3,2.4l6.1,7.7c0.4,0.5,1,0.7,1.6,0.6l7.3-1.2l2.4,4.4l-5.6,3.1c-0.8,0.5-1.1,1.5-0.7,2.3
		c0.5,0.8,1.5,1.1,2.3,0.7l5.6-3.1l0.4,0.8c0.7,1.2,1.4,2.3,2.2,3.3l-5.2,5.8c-0.4,0.5-0.5,1.1-0.3,1.7l3.3,9.3
		c0.3,0.9,1.3,1.4,2.2,1c0.1,0,0.2-0.1,0.3-0.1c0.7-0.4,1.1-1.3,0.8-2.1l-3-8.3l4.4-4.9c6.3,5.4,15.5,6.6,23.2,2.3l0,0l0,0l0,0
		c4.8-2.6,8.2-7,9.8-12.3c0.8-2.9,1-5.8,0.6-8.6l6.5-1.1l5.3,7c0.5,0.7,1.5,0.9,2.2,0.5c0.1,0,0.1-0.1,0.2-0.1
		c0.8-0.6,0.9-1.6,0.3-2.4L164.5,218.6z M120.4,198c5.9-3.3,13.2-1.5,17.1,3.8l-23,12.7C112.1,208.3,114.5,201.2,120.4,198z
		 M120.7,233.8l-8-14.5l1.8-1l11.6-6.4l16.2,29.4C134.4,244.7,125,241.6,120.7,233.8z M150.6,217.3c2.2,4,2.7,8.6,1.4,13
		c-1.1,3.8-3.5,7.1-6.7,9.3l-16.2-29.4l11.6-6.4l1.8-1L150.6,217.3z"/>
</g>
<text transform="matrix(1 0 0 1 164.9499 425.4902)" class="st1 st2 st3 st4">试剑亭</text>
<text transform="matrix(1 0 0 1 86.1867 467.4855)" class="st1 st5 st6">DEBUGGING PLATFORM</text>
</svg>
