<svg id="code" xmlns="http://www.w3.org/2000/svg" width="20" height="20" viewBox="0 0 20 20">
  <metadata><?xpacket begin="﻿" id="W5M0MpCehiHzreSzNTczkc9d"?>
<x:xmpmeta xmlns:x="adobe:ns:meta/" x:xmptk="Adobe XMP Core 5.6-c138 79.159824, 2016/09/14-01:09:01        ">
   <rdf:RDF xmlns:rdf="http://www.w3.org/1999/02/22-rdf-syntax-ns#">
      <rdf:Description rdf:about=""/>
   </rdf:RDF>
</x:xmpmeta>
<?xpacket end="w"?></metadata>
<defs>
    <style>
      .cls-1, .cls-2 {
        fill: #fff;
      }

      .cls-2 {
        fill-rule: evenodd;
      }
    </style>
  </defs>
  <rect id="矩形_4" data-name="矩形 4" class="cls-1" x="11" y="18" width="9" height="2"/>
  <rect id="矩形_4_拷贝" data-name="矩形 4 拷贝" class="cls-1" x="18" y="11" width="2" height="6"/>
  <path id="形状_70" data-name="形状 70" class="cls-2" d="M30,26h6V20H34v4H30v2Z" transform="translate(-19 -9)"/>
  <path id="矩形_16" data-name="矩形 16" class="cls-2" d="M19,9h9v9H19V9Zm2,2h5v5H21V11Z" transform="translate(-19 -9)"/>
  <path id="矩形_16_拷贝_2" data-name="矩形 16 拷贝 2" class="cls-2" d="M19,20h9v9H19V20Zm2,2h5v5H21V22Z" transform="translate(-19 -9)"/>
  <path id="矩形_16_拷贝" data-name="矩形 16 拷贝" class="cls-2" d="M30,9h9v9H30V9Zm2,2h5v5H32V11Z" transform="translate(-19 -9)"/>
</svg>
