<svg xmlns="http://www.w3.org/2000/svg" width="20" height="20" viewBox="0 0 20 20">
  <metadata><?xpacket begin="﻿" id="W5M0MpCehiHzreSzNTczkc9d"?>
<x:xmpmeta xmlns:x="adobe:ns:meta/" x:xmptk="Adobe XMP Core 5.6-c138 79.159824, 2016/09/14-01:09:01        ">
   <rdf:RDF xmlns:rdf="http://www.w3.org/1999/02/22-rdf-syntax-ns#">
      <rdf:Description rdf:about=""/>
   </rdf:RDF>
</x:xmpmeta> 
<?xpacket end="w"?></metadata>
<defs>
    <style>
      .cls-1 {
        fill: #fff;
        fill-rule: evenodd;
      }
    </style>
  </defs>
  <path id="comment" class="cls-1" d="M19,108c0-4.981,4.484-9,10-9s10,4.021,10,9-4.484,9-10,9H21.912l0.3-1.14a2.112,2.112,0,0,0,.061-0.361,1.46,1.46,0,0,0,.061-0.48v-0.3A8.5,8.5,0,0,1,19.006,108h0Zm4.774,5.3c0.373,0.312,0,1.711,0,1.711H29c4.423,0,7.994-3.113,7.994-7s-3.57-7-7.994-7-7.994,3.112-7.994,7a6.551,6.551,0,0,0,2.772,5.29h0Zm9.182-6.308a1.01,1.01,0,0,1,1.026,1h0a1,1,0,0,1-.969,1,1.01,1.01,0,0,1-1.026-1A0.93,0.93,0,0,1,32.959,106.987Zm-3.982,0a1.01,1.01,0,0,1,1.027,1h0a1,1,0,0,1-.969,1,1.01,1.01,0,0,1-1.026-1A0.93,0.93,0,0,1,28.978,106.987Zm-4,0a1.01,1.01,0,0,1,1.026,1h0a1,1,0,0,1-.969,1,1.01,1.01,0,0,1-1.026-1A0.963,0.963,0,0,1,24.982,106.987Z" transform="translate(-19 -98)"/>
</svg>
