<?xml version="1.0" encoding="utf-8"?>
<!-- Generator: Adobe Illustrator 24.2.0, SVG Export Plug-In . SVG Version: 6.00 Build 0)  -->
<svg version="1.1" id="图层_1" xmlns="http://www.w3.org/2000/svg" xmlns:xlink="http://www.w3.org/1999/xlink" x="0px" y="0px"
	 width="13px" height="13px" viewBox="0 0 13 13" style="enable-background:new 0 0 13 13;" xml:space="preserve">
<style type="text/css">
	.st0{fill:#BBBBBB;}
</style>
<path class="st0" d="M6.9,1.1c0.9,0,1.9,0.8,1.9,2.1c0,0.5,0,1-0.1,1.4h1.7c0.6,0,1.1,0.3,1.5,0.7c0.3,0.4,0.4,0.8,0.3,1.3
	c-0.1,0.6-0.9,4.1-1.1,4.5c-0.2,0.3-0.4,0.6-0.6,0.7c-0.3,0.2-0.6,0.3-1,0.3H1.7c-0.6,0-1.1-0.5-1.1-1V5.9c0-0.5,0.5-1,1-1h1.5
	c1-0.1,1.8-0.9,1.8-2C5,1.8,5.9,1.1,6.9,1.1z M6.9,2.1c-0.5,0-0.7,0.3-0.7,0.7C6,4.4,5.2,5.4,4,5.9v5h5.5c0.3,0,0.6-0.2,0.6-0.4
	c0.1-0.3,0.9-3.8,1-4.2s-0.3-0.7-0.7-0.7H7.1l0.3-0.8C7.5,4.4,7.6,4,7.6,3.2C7.7,2.5,7.2,2.1,6.9,2.1z M2.9,6.1H1.8V11h1.1V6.1z"/>
</svg>
