<?xml version="1.0" encoding="utf-8"?>
<!-- Generator: Adobe Illustrator 24.2.0, SVG Export Plug-In . SVG Version: 6.00 Build 0)  -->
<svg version="1.1" id="图层_1" xmlns:xml="http://www.w3.org/XML/1998/namespace"
	 xmlns="http://www.w3.org/2000/svg" xmlns:xlink="http://www.w3.org/1999/xlink" x="0px" y="0px" viewBox="0 0 1260 350"
	 style="enable-background:new 0 0 1260 350;" xml:space="preserve">
<style type="text/css">
	.st0{fill:#F4204E;}
	.st1{fill:#021D46;}
	.st2{enable-background:new    ;}
	.st3{fill:#101010;}
</style>
<path class="st0" d="M344.7,178.2c-0.2-0.2-1.6,0.3-1.5-1.3C342.9,177,344.4,175.4,344.7,178.2z M337.9,150.9l0.7,0.3l-2.1-3.5
	L337.9,150.9z M335.3,140.1l-0.3,0.8l2.3,1.5c-0.8-2.5-1.8-5.5-2.7-8.1c-1.1-2.6-1.9-5.1-2.1-7C330.7,130.1,335.2,135.6,335.3,140.1
	z M333.6,115.5c-0.2-0.5-0.4-1.2-0.9-2.4c-0.5,1.1-1.8-2.4,0.9,3C333.6,115.8,333.6,115.7,333.6,115.5z M333.6,115.5
	C334.7,117.9,333.7,113.6,333.6,115.5L333.6,115.5z M330.4,104.4c-1.9-3.1-2.1-2.2-2.1,0l2.2,2.8
	C330.7,106.4,329.5,103.5,330.4,104.4z M326.5,103.7c0.1-0.3,0-0.9-1.1-1.4c0,0,0.3,0.3,0.5,0.8
	C326.2,103.3,326.5,103.7,326.5,103.7z M327.4,105.2c-0.8,0,0.1,0.4,1.3,1.6l-2.2-3.2C326.3,104.3,325.7,104.6,327.4,105.2z
	 M328.2,110.4c1.4,3,2.3,4,2.6,3.7c0.2-0.3,0-2.3-1.5-5.3C329.6,110.9,330.2,113.4,328.2,110.4z M331.1,131.2
	c-0.3-0.4-0.5-1.6-0.7-2.7c-0.2-1.1-0.4-1.9-0.8-1.8c0,0,0,0.7,0.1,1.3c0,0.7,0,1.3,0,1.3L331.1,131.2z M319.1,88
	c0.4,0.4,0.9,1,0.9,1c-0.3-1.3-1.4-3.6-0.9-4.2c-0.5,0.1-0.5,1.8-0.9,2.3C318.1,87,318.6,87.6,319.1,88z M318.1,87l-2.7-2.7
	C317.2,87.2,317.8,87.6,318.1,87z M324.9,105.2c1.1,1.2,2.1,2.4,2.1,2.4s-1.2-1.5-2.4-3c-0.5-0.8-1.2-1.4-1.6-2
	c-0.4-0.5-0.8-0.9-0.8-0.9l0.5,1.1C322.7,102.9,323.9,104,324.9,105.2z M311.9,73.1c0.5,0.3,1.1,0.5,1.1,0.5s-0.9-0.5-1.9-1.1
	c-1-0.5-1.9-1-1.9-1l1.5,1C310.8,72.6,311.4,72.9,311.9,73.1z M304.6,65c1.8,0.7-0.2-2.7,1.3-1.9c-1.9-2-4-3.2-5.9-4.2
	C301.7,60.4,303.1,62.3,304.6,65z M296.8,57.4c0.9,0.7,2,1.2,3.2,1.8C299,58.5,298,57.8,296.8,57.4z M311.4,75.5l-0.3,2.1
	c0.2,0.3,0.5,0.8,0.9,1.2C312,78.4,312.3,77.5,311.4,75.5z M311.1,77.6L311.1,77.6c-0.9-1.4-1.5-2.3-1.9-2.7
	C309.5,75.2,310,76.1,311.1,77.6z M312.1,79.1c-0.1-0.1-0.1-0.2-0.2-0.3C311.9,79,311.9,79,312.1,79.1z M315.6,92.9
	c1.6,0.9,1-1.6,3.6,0.7C317.5,92.1,314.5,88.6,315.6,92.9z M311.8,81.7c0,0,0.5,0.9,1,1.8s1,1.8,1,1.8c0.2-0.2,0.3-1.2,1.3-0.4
	c0,0-0.8-0.8-1.5-1.5c-0.4-0.4-0.8-0.8-1.1-1.1C312,81.8,311.8,81.7,311.8,81.7z M310.3,80.2l1.5,1.3l-0.8-1.3H310.3z M300.5,63.4
	c-0.8-0.4-1.5-1-2.2-1.8c-0.8-0.7-1.4-1.3-2.2-2.1c1.4,1.9,2.8,3.7,4.4,5.5C301,65,302.2,65.2,300.5,63.4z M305.8,70.3
	c-0.1-0.1-0.2-0.2-0.3-0.2C305.6,70.3,305.6,70.5,305.8,70.3z M280.6,45c0,0.1,0.1,0.2,0.1,0.4c0.1,0,0.1-0.1,0.2-0.1L280.6,45z
	 M300.4,65.6c0.9,1.5,1.9,2.1,2.8,2.5c-1-0.9-2-1.9-2.8-3C300.2,65.1,300.1,65.1,300.4,65.6z M292.2,53.5c0.4,0.9,1,1.8,1.6,2.7
	C293.5,55.3,292.6,53.5,292.2,53.5z M305.4,69.3c0.1,0,0.1,0.1,0.2,0.2C305.4,68.9,305.4,69,305.4,69.3z M305.4,69.3
	c-0.8-0.5-1.4-0.9-2.1-1.3c0.8,0.8,1.4,1.4,2.2,2C305.4,69.7,305.3,69.5,305.4,69.3z M286,49.9c0.5,0.5,0.9,0.9,0.9,0.9l-0.5-0.2
	l1.3,1c-1.2-1.5-1.9-2.7-3.1-5.1c-2.5-1.3-3.3-1.3-3.6-1.1c0,0,1.5,1.3,3,2.7C284.7,48.7,285.4,49.4,286,49.9z M293,56.7
	c-1.9,0-5.1-2.2-4.5,0.5c3.4,3.3,3.2,1.5,5.6,3.2c-5.6-5.4,2.1,1.1-1.2-3.5c1.2,1,2.2,1.9,3.2,2.7c-0.9-1.1-1.6-2.3-2.3-3.4
	c0,0.1,0,0.1,0.1,0.2l0,0l0,0c0.1,0.3,0.1,0.5-0.1,0.2l-0.1-0.1C293.4,56.6,293.2,56.7,293,56.7c-1.3-1.9,0-0.5,0.7-0.1
	c0.1,0,0.1,0,0.2-0.1l0,0c0,0-1.4-1.3-3.1-2.5c-1.5-1.2-3.1-2.4-3.1-2.4C288.7,52.9,290.2,54.2,293,56.7z M310.9,91.1
	c0-0.2,0.1-0.3,0.1-0.3C310.7,90.4,310.5,90.3,310.9,91.1z M311.1,90.7c0.9,0.7,2.8,2.6,1.6-0.5l-0.4-0.3c-1-2.2-1.5-5.4-1.5-6.5
	c-0.4,1.3-0.8,2.5-0.8,4.7c0.4,0.3,1.2,0.4,2,2C312.6,91.5,311.5,90.4,311.1,90.7z M310.8,83.4c0-0.1,0.1-0.2,0.1-0.3
	C310.8,83,310.8,83.1,310.8,83.4z M299.8,69.8c-1.2-1.1-2.3-2.2-2.3-2.2l1.2,3.2l0.4-0.5c2.1,3,2.2,1.8,3,1.8c0,0-0.3-0.3-0.7-0.7
	C300.8,70.9,300.3,70.4,299.8,69.8z M282.1,43.5c0,0-1.1-0.2-2.2-0.4s-2.2-0.3-2.2-0.3l2.6,1.3L282.1,43.5z M274.8,38.1
	c0,0-0.5-0.2-1.1-0.3c-0.5-0.2-1.1-0.3-1.1-0.3l1.2,1.5L274.8,38.1z M72.9,32.2l1.5,0.8c1.5-1.3,2.8-2,4-2.4
	C75.5,31,71.8,31.1,72.9,32.2z M194.5,6.7c-2.3-0.9-4.2-1.3-5.8-1.6C191.4,6.3,193.5,7.8,194.5,6.7z M18.5,261.5
	c0.8,0.9,1.3,1.2,1.5,1C19.3,261.6,18.6,261.1,18.5,261.5z M188.6,5.1c-2.1-0.9-4.5-1.4-6.9-0.5c0.4,0.2,0.9,0.3,1.2,0.4
	C184.7,4.8,186.5,4.7,188.6,5.1z M339.6,204.2c0.2-0.5,0.3-1.5,0.3-3.3C339.9,201.8,339.7,203,339.6,204.2z M244.9,20.8
	C246.7,21.5,245.3,20.7,244.9,20.8L244.9,20.8z M250.1,29.7c-0.4,0-0.8,0-1,0.3C249.4,29.8,249.7,29.7,250.1,29.7z M247.1,22.6
	c-0.5-0.4-1.1-1-1.9-1.4C245.6,21.4,246.1,21.8,247.1,22.6z M247.1,21.8c0.5,0.3,1,0.5,1.3,0.9C248.8,22.6,248.6,22.3,247.1,21.8z
	 M244.9,20.8c-0.4-0.2-1.2-0.4-2.3-1c1,0.4,1.8,0.9,2.6,1.3C244.9,20.9,244.8,20.8,244.9,20.8z M337.9,202.7
	c-0.3,0.9-0.5,1.4-0.5,1.4c0.9-0.2,1.8,1.6,2.3,0.1c-0.4,2.4-0.7,4.6,1,1.5c-4.5,11.4-7.7,22.8-11.7,34c-4,11.2-9.1,22.2-16.6,31.2
	c-0.7,1.4,0.4,1.1,1.1,0.9c-2,1.3-2.3,2.3-2.4,3.2c0,1,0.3,1.9-0.2,3c0,0-1.5,0.9-3.1,1.8c-0.8,0.4-1.5,0.9-2.1,1.1
	c-0.5,0.3-1,0.5-1,0.5c-0.9,2.5,1.1,1.5,1.4,2c-1.8,2.4-3.6,4.8-5.7,6.9c-1,1.1-2.1,2.1-3.1,3.1c-1,1-2.1,2-3.2,2.8
	c-2.1,1.9-4,3.7-6,5.5c-1.9,1.9-3.6,3.7-5.3,5.6c-3,1.2-1-2.2-4.3,0.1c3.1-0.7,1.1,1.6-1.3,3.7c-2.4,2.2-5,4.4-3,4.2
	c-2.5,0-5.6,1.9-8.1,3.4c-2.5,1.4-4.7,2.1-5.1-0.2c-4.2,2.3-2.3,3.7-1,3.3c-2.4,1.5-4.6,2.6-6.6,3.9c-1,0.7-2,1.3-2.8,2.1
	c-1,0.7-1.9,1.4-2.7,2.3c-0.8,0.1-2.6,1-4.9,2.2c-2.4,1.1-5.4,2.5-8.4,3.8c-6.1,2.5-12.8,4.4-15.6,3.5c3.8,1.1,0.1,1.2-2.8,3l3.4,1
	c0,0-1.9,0.4-3.6,0.9c-0.9,0.2-1.9,0.4-2.5,0.7c-0.7,0.2-1.1,0.2-1.1,0.2c-1.4,0.5-1.9,0.5-1.9,0.3c-1.2,0.2,0-1.1-3.2-0.9
	c-2.4,0.5-3.7,1-4.7,1.5c-1,0.5-1.6,1.2-2.8,1.9l0.8,0.1l-3.4,0.8c-2.5,0.4,8.5-3.4,0.2-3c0,0.7-4.5,3.7-6.9,2.6
	c4.2-0.4,3.5-1.6,1.9-2.1c0,0-1.4,0.1-3,0.3c-0.8,0.1-1.4,0.1-2,0.2s-0.9,0.1-0.9,0.1s0.5,0.5,1.1,1.1c0.5,0.5,1.1,1.1,1.1,1.1
	c-8.4,0.8-17.2,0.8-25.9-0.1c-8.8-0.9-17.5-2.1-26.4-3.8c0.7-2-12.4-3-10-5.6l0.5,0.4c2.2,0.4,2-0.3,0.9-1.1
	c-1.1-0.9-3.2-1.9-4.9-2.2c3.3,2-7.2,1.2,1.3,4c0,0-1.8-0.1-3.6-0.2c-1.8-0.1-3.6-0.3-3.6-0.3c-2.7,2.2-7.3,0.7-12.4-2.1
	c-5-2.6-10.3-6.5-15.5-8.1c0.8,0.1,1.1,0,1.3-0.2c-2.4-0.7-4.6-1.8-6.8-3.1c-1.1-0.7-2.1-1.3-3.1-2c-1-0.8-1.9-1.4-2.7-2.2
	c-3.5-2.7-5.9-5.4-7.1-5.6l0.2-1.9c-4-1.3-6.2-2.3-8.3-3.6c-2.1-1.3-4-3.3-7.3-6.8c0.3-0.1,1.4,0.2,0.5-1c-1.3-0.3-2.5-0.7-4-1.5
	c-1.5-0.9-3.4-2.2-5.6-4.8l0.5-0.1c0,0-1.9-1.9-3.7-3.7c-0.9-0.9-1.8-1.9-2.4-2.6c-0.7-0.8-1.1-1.2-1.1-1.2c1-0.8,0.5-2-0.5-3.3
	c-1.1-1.3-2.7-3-4.6-4.6c-1.9-1.6-3.5-3.5-4.7-5.4c-1.1-1.8-1.8-3.4-1-4.9c-1.2-0.4-2.8-2.2-4.6-4.2c-1.8-2-3.3-4.3-4.5-5.6
	c0.2-0.1,0.2-0.4,0.2-1c-2.2-1.1-3.3-3.8-4.3-6.7s-1.3-5.9-2.4-7.9c-1.8-2.4-2.1-0.9-2.3,0.7c0-0.8-0.2-1.5-0.4-2.3
	c-0.2-0.8-0.5-1.6-0.9-2.4c-0.8-1.6-1.8-3.3-2.7-4.7c-1.9-3.1-3.7-5.7-3.6-6.9c-1.1-4.2,1.4-2.1,2.1-3.5c-2.2-5.9-4.2,2.3-4.5-6.5
	c0.4,0.9,1.1,2.6,1.2,1.9c-0.3-1.6,0.8-4.2,1.6-6.7c0.9-2.4,1.4-4.8,0.7-6.2l-0.5,2.2c-1.2-2.7-0.8-6.2-0.4-9.1
	c0.4-2.8,0.7-5-1.1-5.4l-1.5,0.8c0.2-2.5,0.2-4,0.2-5c0-1-0.1-1.5-0.2-2.1s-0.3-1.1-0.3-2.1c0-1,0-2.5,0.4-5l0.2,0.1
	c-0.4-4.4,1.4-6.7-1-8.9l0,1.8c0-2.7,0-4.2,0.1-5.7c0-1.5,0.2-3,0.5-5.8c-0.2-0.7-0.3-3.4,0.2-4c-1.1-0.2-0.9-3.5-0.4-7
	c0.1-0.9,0.2-1.8,0.4-2.6c0.2-0.9,0.4-1.6,0.5-2.4c0.3-1.5,0.7-2.7,0.8-3.3c-0.4,4.4,0.8,2.5,1.9,1.4c-0.7-1.4-0.9-2.6-0.8-3.8
	c0.2-1.2,0.8-2.5,1.8-4c-1.2-0.5-2.5-1.2-3.3-2.5c-0.3-0.7-0.7-1.5-0.7-2.7c0-1.1,0.2-2.5,0.7-4.3c0.1,1.2-0.2,3,0.5,2.4
	s0.7-2.3,0.5-3c0.8-0.5,0.4,1.8,1.6,1.3c-0.5-2.6,0-4.7,0.9-6.9c1-2.2,2-4.6,3-8c-0.1,2.4,1.1,0.8,2.3,0.3c-1.3-0.8,0.2-2.8,1.4-4.4
	c1.3-1.6,2.3-2.8,0-2.4c3.7-5.9,7.8-13.5,11.7-20c2.1-3.2,3.9-6.2,5.8-8.4c1.9-2.3,3.4-3.9,4.7-4.6c1.8-0.4,2.6-4.5,4-6.3l0.8,1.1
	c1.2-3.3,1.9-4.4,2.6-5.6c0.4-0.7,0.8-1.3,1.3-2.2c0.5-1,1.2-2.2,2.2-4c-1.1,3.4,0.3,3,3.5,1.4c0,0,0.4-1.4,0.9-2.8
	c0.4-1.4,1-2.8,1-2.8l2.2,0.8c1-2.1,3-3.5,5-4.8c0.1-1.4,1.4-3.3,3-5.1c1.9-2.1,3.9-3.9,4-4.9c1.8,0.3,3-0.8,4-1.8
	c1.1-1.1,2.2-2.1,3.6-1.5c0.4-0.8,1.1-1.6,1.9-2.4c-1.6-0.3-2.7-1.2-0.5-2c0.1-0.1,0.2-0.2,0.4-0.3l1.6,0.8c1.6-1.5,3.5-3,4.7-3.7
	c-0.7,0.2-1.4,0.4-2.3,0.5c1-0.3,1.9-0.5,2.7-0.8c0.2-0.1,0.5-0.3,0.7-0.3c-0.1,0.1-0.2,0.2-0.3,0.3c1.4-0.3,2.6-0.9,4-2.3
	c2-0.4,3.8-1.3,5.7-2.4s3.6-2.5,5.5-3.7c1.9-1.2,3.8-2.5,5.8-3.4c2.1-0.9,4.3-1.4,6.6-1.4c-1.3,0.1-3.1,0.7-3.3,1.4
	c1.6-0.7,3.4-1.3,5-1.8c1.8-0.4,3.4-0.8,5-1.1c3.2-0.8,6-1.2,8.1-2.4l-0.7-1.3c1.2-0.5,2.4-1,3.5-1.4c1.1-0.4,2.2-0.8,3.3-1.1
	c2.2-0.7,4.2-1.3,6.2-1.6L136,5.9c1.5-0.1,3.5-0.5,5.7-1c2.2-0.5,4.5-0.9,6.8-1.3c1.2-0.2,2.3-0.3,3.4-0.4s2.2-0.1,3.1,0
	c2,0.1,3.5,0.4,4.5,1.2c0.8-0.8,2.8-0.7,5.4-0.5c2.4,0.1,5,0.3,6.9,0.2l0.9,1.3c2.3,0.2,4.2,0.3,5.8,0.2c1.6,0,3.1-0.1,4.4-0.2
	c4.6,1.6,9,2.3,13.2,2.5c4.3,0.4,8.5,0.5,12.5,1.6v0.3c0,0,2.1,0.2,4.2,0.4c2.1,0.3,4.2,0.7,4.2,0.7c-2.4,0.5,1.8-0.3,4.2,0.7
	c2.7,0.2,6.7,1.9,9.3,3.7l4.9,2c-5.8-1.3-0.3,1.9-0.5,3.4c0,0,0.9,0,1.8,0.1c0.9,0.1,1.8,0.1,1.8,0.1c1,1.2-2.4,0.2-0.3,1.5
	c1.2,0.1,3.3,0.9,5.4,1.4c2.1,0.7,4.2,1.4,5.5,1.2c-0.1-0.4-0.7-1.2-1.4-1.9c-0.3,0-0.2-0.1-0.1-0.1c-0.1-0.1-0.1-0.1-0.2-0.2
	c0.1,0.1,0.1,0.1,0.2,0.2c0.3,0,0.9,0,1.1-0.1c3.6,2.2,2.5,1,2.6,0.3c1.6,2.1,3.1,3.2,4.5,4.3c1.3,1.1,2.6,2.1,3.4,4.2
	c-2.5-5.3,9.2,5.8,8.2,1.8c1.6,3.9,2,1.5,2.6,4.5c-1.9-1.8-4-2.8-6.3-3.6c-2.3-0.8-4.6-1.3-6.6-1.9c0,0,0.2,0.2,0.4,0.4
	c0.2,0.3,0.5,0.7,0.9,1.1c0.7,0.8,1.2,1.6,1.2,1.6c-0.9,0.2-1.8,0-2.5-0.4c-0.9-0.4-1.6-1.1-2.5-1.9c-1.6-1.4-3.1-3.1-4.3-3.3
	c1.6,0.2,4.4,2.5,4.2,3.1l0.1-2.3c-1.1-0.9-2.2-1.5-3.3-2.2c-1.1-0.5-2.3-1-3.4-1.3c-2.2-0.7-4.4-1.1-6.3-1.4
	c3.1,2.1-4.6-0.8-2.7,1.6l2.7,1c0.2,0.3,0.2,0.5-0.1,0.7c6.9,3.3,13.6,7.1,19.9,11.4l-1.8-1.5l2-0.3l-0.1,1.9
	c2.1,1.4,4.3,2.8,6.2,4.4c1.6-1.1,7.3,2.4,6.7,0.1c0.8,1.1,0.8,1.6,1.2,2.3c0.4,0.7,1.2,1.4,3.3,2.8c3.3,1.2-1.6-4.3-2.3-5.6
	c3.6,1.9,3.9,1.5,4.4,1.1c1,3.9,0,8.4-3.1,7.3c1.3,1.1,2.6,2.3,3.8,3.5c-0.5-1,0.8-0.3,2.2,1l-0.4,0.7c-0.1,0-0.1-0.1-0.2-0.1
	c32,30.2,52,72.9,52,120.4c0,3.2-0.1,6.3-0.3,9.4c0.1-0.2,0.3-0.3,0.4-0.5c1.5-1.8,3-3.2,4.2-1.1l-0.3-3.2c1,0.5,1.1,3,0.9,5.6
	c-0.2,2.5-0.3,5.1,0.7,6.2c0,0-0.1,0.7-0.4,1.5c-0.3,0.9-0.8,2.1-1.2,3.3C338.6,200.6,338.3,201.8,337.9,202.7z M8.8,140.5
	c-0.4-0.1-0.9,0.2-1.3,1.1c0.1,0.3,0.1,0.9,0.2,1.3c-0.7-1.3-1.2-2.2-1.6-1.4c0,0,0,0.4-0.1,1.1c0,0.7-0.1,1.5-0.1,2.4
	c0,1.8,0,3.5,0,3.5c0.3-0.7,1.1-1.4,1.9-2.4c0.1-0.5,0.2-1,0.3-1.5c-0.1-0.5-0.1-1.2-0.2-1.8c0.1,0.3,0.2,0.5,0.4,0.9
	C8.2,142.7,8.4,141.6,8.8,140.5z M50.8,63.4c-1-0.7-1.9-1.2-2.1-2c0,0-0.1,1-0.4,2.5c-0.1,0.8-0.2,1.6-0.3,2.5
	C48.8,65.5,49.8,64.4,50.8,63.4z M57.9,51.7c-0.1-0.2-0.1-0.4-0.1-0.7C57,51.7,57.6,51.5,57.9,51.7z M105.5,20.6
	c0,0-0.3,0.2-0.8,0.5c-0.4,0.3-1.1,0.7-1.6,1.1c-1.2,0.9-2.3,1.8-2.3,1.8L99,23.5c-2.8,2-4.9,5.3-6.2,8.3c2.7-1.4,5.5-2.7,8.2-4
	C102.9,24.9,104.5,22.1,105.5,20.6z M141.4,15.2c-0.1-0.2-0.3-0.4-0.8-0.7c-1.1-0.4-3.9-0.9-6.5-1c-2.6-0.1-5-0.2-5.4-0.2
	c-0.5,0.9-0.5,2.6,0,4.6c2-0.4,3.8-1,5.8-1.3l0.2-2.6l0.7,2.4C137.5,15.9,139.4,15.6,141.4,15.2z M163.8,12.9
	c-0.4-0.3-1-0.9-0.9-1.4c-1.3,0.2-2.7,0.9-4,1.6C160.5,13,162.2,12.9,163.8,12.9z M226.1,14.6h0.1C224.5,13.6,223.6,13,226.1,14.6z
	 M209.7,344.7l1.2,0.1C211.5,344.3,212.2,343.8,209.7,344.7z M225.3,16.4c-4.4-2.6-6.7-2.3-9.2-2c-1.2,0.2-2.5,0.4-4.3,0.3
	c-1.8,0-3.8-0.2-6.7-1c-0.5,0.1,0.1-0.3,0.2-0.8c0.1-0.4-0.5-1.2-3.7-1.3c-2.1,0-3.9,0.1-5.7,0.2c-1.8,0.2-3.3,0.7-4.5,1.1
	c-0.8,0.3-1.4,0.5-2,0.9c8,1,15.8,2.4,23.3,4.5c-0.7-0.3-1.1-0.5-1.4-0.9c1.6,1,5,1.5,6.8,1.3l-3.8-2c1.6,0.4,3.1,1.3,4.6,2.1
	c1.5,0.9,3.3,1.8,5.8,2.3C224.3,19.8,228.5,19.4,225.3,16.4z M271.1,47.4c0,0-0.1-0.1-0.3-0.1C270.9,47.3,271,47.3,271.1,47.4
	L271.1,47.4z M277,52.2c-0.4-0.8-1-1.4-1.5-2c-0.7-0.7-1.4-1.2-2.2-1.5c-0.4-0.2-0.8-0.3-1.1-0.5C273.8,49.6,275.5,50.9,277,52.2z
	 M261.4,29c0.1,0.1,0.2,0.1,0.2,0.1C261.6,29,261.6,29,261.4,29z M260.9,29.7c0.1-0.3-0.1-1,0.4-0.8c-0.3-0.2-0.9-0.4-1.4-0.7
	c-0.9-0.4-1.8-0.8-1.8-0.8C259.8,28.4,260.2,28.9,260.9,29.7z M261.9,35.5c-0.5,1.3,1.9,2.1,4,3.5c-0.1-0.1-0.2-0.2-0.3-0.2
	C267.2,37.7,264.6,36.5,261.9,35.5z M268.5,40.7c0.7-0.4-0.8-0.7-2-1.4C267.1,39.7,267.9,40.2,268.5,40.7z M239.1,19.3
	c1,0.9,1.4-1.2,1.9-0.4c1-0.4-1.2-0.9-2.7-1C236.7,18,235.7,18.3,239.1,19.3z M244,29l3.5,2.3c0.1-0.3,0.7-0.2,1.3,0
	C246.6,30.1,244.2,28.6,244,29z M251.9,32.7c-0.7-0.3-2-1.1-3.1-1.4C250,32,251.1,32.6,251.9,32.7z M197.2,14
	c-0.5,0.4,0.7,1,2.3,1.1c1.1-0.2,2.8-0.1,2.3-0.8L197.2,14z M343,188.1c0,0,0.2-0.9,0.4-1.8c0.2-0.9,0.4-1.8,0.4-1.8l-1.2,2.3
	L343,188.1z M342.9,180.4l-1.9-2.2c0.1,0.8,0.2,2.4-0.3,3L342.9,180.4z"/>
<path class="st1" d="M357-0.1c-102.1,34.8-208.7,34.8-313.1,0c0,10,0,19.9,0,29.9c10,3.7,19.8,6.8,29.4,9.3v25.2h38.5v18.2h-6.8v6.8
	H87v13.6h25v190.5h15.9V102.8h145.2v190.5h18.1V102.8h18.2V89.2h-9.1v-6.8h-9.1V64.3h36.3V39.6c10.1-2.6,19.9-5.8,29.4-9.8
	C357,19.8,357,9.9,357-0.1z M127.8,64.3h9.1V48.8c17.3,1.2,34.6,1.6,52.2,1.9v38.4h-52.2v-6.8h-9.1V64.3z M273.1,64.3v18.2h-6.8v6.8
	h-54.4V50.7c18.1-0.3,36.3-0.7,54.4-1.9v15.4H273.1z"/>
<path class="st1" d="M237.2,195c-0.5-0.2-7.6-0.7-16.9-0.9c-0.1-0.4-0.2-0.9-0.3-1.1c-0.2-0.5-0.4-1.8-0.5-3.2
	c8.6-3.7,14.8-6.1,15.1-6.3c0.7-0.3,0.9-2.7-1-2.5c-0.8,0.1-6.8,2.5-14.4,5.8c-0.1-2.7-0.1-5.7,0.1-7.3c0.3-3.3-0.4-16-0.9-16
	c-0.4,0,0.3-3.7-0.4-4.6c-0.9-0.9-6.7-2.8-6.7-2.8l-3.5-4.6l-2.3-1.4l0.4-0.9l1.3-2.3c0,0,3.1-2.7,3.6-4.4c3.2-0.1,11.9-1,11.9-1
	l3.8-1.9l-14.8-10.1l-8.8-5.4l-8.5,4.6l-13.7,10.5l5.6,1.5c0,0,7.4-0.4,9.1-0.1c0.2,0,0.7,0.1,1.2,0.2c0.1,1,0.4,2.4,0.8,3.1
	c0.7,1,1.2,1.9,1.2,1.9l0.2,2.6l-2.6,0.3l-3.2,4.2c0,0-9.5,0-10,0.4s-1.4,2.4-1.4,2.4l1.3,4.9c0,0-1.3,7.4-1.5,9.5
	c-0.2,2.1,0,7.3,0,7.3s-0.2,4.7-0.7,6.2c-0.4,1.5,1.9,4.6,1.9,4.6l1.9,7.4l-0.1,0.4c-9.5,1.2-16.5,2.5-16.5,2.5l1.4,3
	c0,0,6.1-1.2,14.7-2.3l-0.4,3.1c-13.2,6.6-30.6,17.3-30.4,17.7c0.3,0.8,1.3,2.5,1.6,2.7c0,0,11.2-8.2,28.1-16.9
	c-0.4,1.8-4.3,15.3-4.3,17.4c-0.1,2.2-0.8,9.7-0.8,9.7l-2.5,7.9c0,0-1.5,1.4-1.4,2.1c0.1,0.7,1.3,5.3,2.3,5.9c1,0.7,0.3,1.9,0.3,1.9
	l-0.9,2.4c0,0,1.2,1.5,3.1,3c1.9,1.4,0.4,2.8,0.4,2.8s-1.5,3.9-2.1,5.1s-2.4,4.7-2.4,4.7s-1.3,2,0.4,2.6c1.8,0.7,5-0.2,6.1-1.9
	c1.4-2.1,1.4-3.7,2.4-4.4c0.9-0.7,1.1-3.1,1.1-3.1s-0.7-4,0.2-4.9c0.9-0.9,16-0.8,16-0.8s2.1-0.3,2.5-0.9c0.4-0.4,0.5-7.2,0.5-7.2
	l1.2,6.1l3.3,0.8c0,0-0.5,2.2-1,2.4s-0.9,4.2-0.7,4.9c0.2,0.8,3,1.5,4.2,1.5c1.2,0,1.6-0.1,3.3-0.1c1.6,0,2.3,1,5,1
	c2.8,0,5.7-0.3,5.4-1.8c-0.3-1.4-4.6-1.2-7.7-4.2c-3-2.8-2.8-3.4-2.8-3.4l0.2-1.6c0,0,5.1-2.1,5.7-3.6c0.4-1.5-1.2-8.2-1.4-9.5
	c-0.2-1.4,1.8-2.3,2.1-4c0.3-1.8-1.9-16.3-2.8-18.3s3.5-5.1,3.5-5.1s0.2-6.7-0.1-10.2c-0.2-1.9-0.3-4-0.7-6
	c9.1,0.1,15.9,0.4,16.1,0.4C237.7,197.7,238.9,195.6,237.2,195z"/>
<path class="st1" d="M210.6,319.4c56.1,0,108.8,5.7,154,15.6c-30.5-18.7-88-31.3-154-31.3S87.2,316.3,56.7,335
	C101.9,325,154.4,319.4,210.6,319.4z"/>
<path class="st1" d="M88.6,211.8c-0.4-0.5-1.1-0.9-1.9-0.8l-8.4,1.4c-0.4-1.3-1-2.7-1.8-3.9l-0.4-0.9l6.1-3.4
	c0.9-0.5,1.2-1.6,0.8-2.5c-0.4-0.9-1.6-1.2-2.5-0.8l-6.1,3.4l-2.6-4.8l5.4-6c0.4-0.5,0.5-1.3,0.3-2l-3.8-10.1
	c-0.3-1-1.4-1.4-2.4-1.1c-1,0.3-1.4,1.4-1.1,2.4l3.4,9l-3.7,4.2l-2.8-5c-0.5-0.9-1.6-1.2-2.5-0.8l-2.1,1.2
	c-3.4-4.9-8.9-7.7-14.6-7.8c-1.2-3.2,0.1-6.9,3.2-8.5c0.9-0.5,1.2-1.6,0.8-2.5c-0.4-0.9-1.6-1.2-2.5-0.8c-4.4,2.4-6.5,7.6-5.1,12.1
	c-1.9,0.3-3.7,1-5.5,2c-1.9,1-3.4,2.3-4.7,3.8c-3.3-3.6-8.6-4.6-13.1-2.2c-0.9,0.5-1.2,1.6-0.8,2.5c0.5,0.9,1.6,1.2,2.5,0.8
	c3.2-1.8,7-0.8,9.1,2.1c-2.7,4.8-3.3,10.8-1,16.2l-2.1,1.2c-0.9,0.5-1.2,1.6-0.8,2.5l2.8,5l-5.6,1l-6-7.6c-0.7-0.8-1.9-1-2.6-0.3
	c-0.8,0.7-1,1.9-0.3,2.6l6.7,8.4c0.4,0.5,1.1,0.8,1.8,0.7l8-1.3l2.6,4.8l-6.1,3.4c-0.9,0.5-1.2,1.6-0.8,2.5c0.5,0.9,1.6,1.2,2.5,0.8
	l6.1-3.4l0.4,0.9c0.8,1.3,1.5,2.5,2.4,3.6l-5.7,6.3c-0.4,0.5-0.5,1.2-0.3,1.9l3.6,10.2c0.3,1,1.4,1.5,2.4,1.1c0.1,0,0.2-0.1,0.3-0.1
	c0.8-0.4,1.2-1.4,0.9-2.3l-3.3-9.1l4.8-5.4c6.9,5.9,17,7.2,25.4,2.5l0,0l0,0l0,0c5.3-2.8,9-7.7,10.7-13.5c0.9-3.2,1.1-6.3,0.7-9.4
	l7.1-1.2l5.8,7.7c0.5,0.8,1.6,1,2.4,0.5c0.1,0,0.1-0.1,0.2-0.1c0.9-0.7,1-1.8,0.3-2.6L88.6,211.8z M40.4,189.2
	c6.5-3.6,14.4-1.6,18.7,4.2l-25.2,13.9C31.3,200.5,33.9,192.7,40.4,189.2z M40.7,228.4L32,212.5l2-1.1l12.7-7l17.7,32.2
	C55.7,240.3,45.4,237,40.7,228.4z M73.4,210.4c2.4,4.4,3,9.4,1.5,14.2c-1.2,4.2-3.8,7.8-7.3,10.2l-17.7-32.2l12.7-7l2-1.1
	L73.4,210.4z"/>
<g class="st2">
	<path class="st3" d="M578.5,204.3c5.8-3,12.3-4.7,19.5-5.1c3.8-0.4,6.2-1.2,7.4-2.5c1.1-1.3,1.7-3.2,1.9-5.7c0.2-2.5,1-3.8,2.4-3.8
		c1.4,0,2.9,2.2,4.5,6.6c1.6,4.4,2.4,8.2,2.4,11.4c0,6.4-4.4,10.3-13.2,11.7c-3.8,0.6-11,3.5-21.5,8.5s-17.5,9.5-21.2,13.2
		c-3.6,3.7-7.6,5.5-12.1,5.5s-9-1.1-13.4-3.5c-4.4-2.3-6.6-6.8-6.6-13.3c0-3,0.6-5.5,1.8-7.7c1.2-2.1,3-3.2,5.4-3.3
		c2.4-0.1,4.5-0.8,6.5-2c1.9-1.2,4.2-3.6,7-7.2c2.8-3.6,4.2-5.8,4.2-6.6c0-0.8-0.5-1.2-1.4-1.2s-2.2,0.2-3.8,0.6
		c-1.6,0.4-3.5,0.6-5.7,0.6c-4.6,0-8.3-1.3-11.1-3.9c-14.6,25-21.9,43.6-21.9,55.8l0.6,5.4c0,5.2-2.7,7.8-7.9,7.8
		c-5.3,0-10.3-4.3-15-13c-4.7-8.7-7.1-15.8-7.1-21.5c0-9.8,0.4-19.5,1.2-29.1l2.1-22.2c0-1.8-0.5-2.7-1.4-2.7s-2.2,0.9-3.8,2.7
		c-3.8,4.2-8.8,6.3-15,6.3c-6.2,0-12.1-2.1-17.6-6.4c-5.5-4.3-9.2-9.7-11.1-16.2c-1.9-6.5-2.9-10.9-2.9-13.2c0-2.3,0.3-3.5,1-3.5
		c0.7,0,1.7,0.9,3.1,2.5c1.4,1.7,3.1,2.6,5.1,2.6c4.6,0,15.9-5.7,33.9-17.1c6.8-4.4,12.7-6.6,17.7-6.6c5,0,9.7,2.7,14.1,8
		c4.4,5.3,6.6,10.3,6.6,15.1s-1.4,11.4-4.2,19.8c-2.8,8.4-5,17.5-6.6,27.3c-1.6,9.8-2.4,16-2.4,18.6c0,2.6,0.4,3.9,1.2,3.9
		c0.8,0,1.8-1.1,3-3.3c2.4-4.2,9.8-13.7,22.2-28.5c-0.2-1.4-0.3-2.7-0.3-3.9c0-5.2,1.7-7.8,5.3-7.8c3.5,0,9.2-2,17.1-5.9
		c7.9-3.9,13.3-6.9,16.3-9c3-2.1,4.7-3.9,5.1-5.5c1-3.8,4.2-5.7,9.6-5.7c3.2,0,6.7,0.8,10.5,2.3c3.8,1.5,6,3.6,6.6,6.2
		c0.6,2.6,0.9,5.4,0.9,8.3c0,2.9-0.4,6-1.2,9.1c-0.8,3.2-1.8,5.3-3,6.3C586.6,190.6,581.5,197.5,578.5,204.3z M476.8,106.2
		c6.8-7.4,13.4-13.1,19.8-17.3c6.4-4.1,9.6-7.8,9.6-11.3c0-3.4-1.5-6.9-4.5-10.5s-4.5-5.8-4.5-6.6c0-0.8,0.5-1.2,1.5-1.2
		c1.8,0,8.8,2.1,21.1,6.1c12.3,4.1,20.1,8,23.5,11.6c3.4,3.6,5.1,7.2,5.1,10.8c0,3.6-1.3,7-3.9,10c-2.6,3.1-5.7,4.7-9.3,4.7
		c-1,0-1.9-0.1-2.7-0.3c-3.8-1-9.2-1.5-16.2-1.5C509.4,100.8,496.2,102.6,476.8,106.2z M619.3,121.2c4,17.6,9.8,36,17.4,55.2
		c7.6,19.2,15,35.3,22.2,48.1c7.2,12.9,12.5,21.3,15.8,25.2c3.3,3.9,5.4,5.9,6.3,5.9s1.7-1.2,2.4-3.5c0.7-2.3,1.6-7.5,2.7-15.8
		c1.1-8.2,1.7-14.9,1.7-20s0.6-7.7,1.8-7.7c0.6,0,1.1,0.6,1.7,1.7c0.5,1.1,1.4,6.2,2.7,15.3c1.3,9.1,2,18.7,2.3,28.7
		c0.2,10,0.9,17.8,2.3,23.5c1.3,5.7,1.9,9.2,1.9,10.3c0,4.2-1.9,6.3-5.7,6.3c-3.8,0-10-3.7-18.5-11.1c-8.5-7.4-17.7-20.2-27.6-38.4
		c-9.9-18.2-25.9-55.7-48.1-112.5c-11.8,6.6-25.8,12.9-42,18.9c0.6-1.6,0.9-3,0.9-4.3c0-1.3-0.9-2-2.7-2.3c-6-0.6-11.8-2.8-17.4-6.6
		c-5.6-3.8-8.4-7.2-8.4-10.2c0-2.2,1.7-3.5,5-3.8c3.3-0.3,8.9-2,16.6-5s20.2-8.6,37.2-16.8C584,84,578.8,71.9,574,66.3
		c-2.6-2.8-5-7.2-7-13.2s-3.2-9.9-3.2-11.9c0-1.9,0.3-2.8,1.1-2.8c0.7,0,1.6,0.6,2.8,1.8s4.4,3.1,9.8,5.7c5.3,2.6,9,4.1,11.3,4.5
		c4.8,1,9.2,5.4,13.3,13.2c4.1,7.8,7.5,18.4,10.4,31.8c7.2-0.6,12.9,0.3,17.1,2.7c4.2,2.4,6.3,5.2,6.3,8.3
		C635.8,109.4,630.3,114.4,619.3,121.2z M638.8,71.1c3.8,0,8.9,0.9,15.3,2.7c6.4,1.8,11,4.6,13.9,8.3c2.9,3.7,4.4,6.9,4.4,9.6
		s-1.3,5.2-3.9,7.3c-2.6,2.2-5.5,3.3-8.7,3.3c-5.8,0-11.8-3.7-18-11.1c-6.2-7.4-9.3-12.6-9.3-15.6S634.6,71.1,638.8,71.1z"/>
	<path class="st3" d="M905.2,124.2c3.4,9.4,5.1,19.3,5.1,29.5c0,10.3-1.3,21.6-4,33.8c-2.7,12.2-6,18.3-9.8,18.3
		c-2.8,0-6.1-3.3-9.9-10c-3.8-6.7-5.7-13.1-5.7-19.2c0-6.1,1.5-12.3,4.5-18.8c1.6-3.6,2.4-7.7,2.4-12.3c0-4.6-1.8-9.9-5.3-16
		c-3.5-6.1-5.7-11.5-6.5-16.3c-8.8,1.6-18.3,2.4-28.5,2.4c-8.8,0-13.2-0.7-13.2-2.1c0-1.6,3.5-3.6,10.5-6c-3.8-3.8-8.5-7.1-14.1-9.9
		c-7.6,9.8-15.2,20.2-22.8,31.2c7.8-2.2,15-4.9,21.6-8.1c1.6-0.8,3.5-1.2,5.7-1.2c4.8,0,9.5,2.1,14,6.3S856,134,856,138
		c0,4-2.1,6.5-6.3,7.5c-3.2,0.8-6.2,2.2-9,4.2c-2.8,2-7,5.5-12.5,10.5c-5.5,5-11.4,9.2-17.5,12.6c-6.2,3.4-11.9,5.9-17.1,7.5
		c-8.6,2.6-12.4,7-11.4,13.2c10-6.6,19.1-10.2,27.3-10.8c4-0.4,8.3-2.5,12.9-6.3c4.6-3.8,10-7,16.2-9.6c6.2-2.6,11.5-3.9,15.9-3.9
		c4.4,0,8.4,1.8,12,5.3c3.6,3.5,5.4,7.3,5.4,11.4c0,4.1-1.2,7.8-3.6,11c-6,8.2-13.5,19.1-22.5,32.7c4.2-0.2,7.4,0.4,9.6,1.8
		c2.2,1.4,4.7,4,7.6,7.7c2.9,3.7,4.4,6.4,4.4,8c0,4.2-3.9,6.4-11.6,6.6c-7.7,0.2-16.8,2.3-27.1,6.3c-10.4,4-17.4,7.5-21,10.7
		c-3.6,3.1-7.2,4.6-10.7,4.6c-3.5,0-7-1.2-10.5-3.4c-3.5-2.3-5.3-6.5-5.3-12.6s0.5-10.1,1.7-12.1c1.1-2,3.3-3.1,6.8-3.3
		c3.4-0.2,7-1.7,10.8-4.5c3.8-2.8,12.5-10.5,26.1-23.1c-12.2-3.6-18.9-6.4-19.9-8.4c-1.1-2-2.5-3-4.1-3c-1.6,0-3.1,1.8-4.3,5.4
		c-1.3,3.6-2,7.5-2,11.7l0.3,9.3c0,5.6-2,8.4-6,8.4c-4,0-8.5-3-13.5-9.2c-5-6.1-7.5-13.2-7.5-21.5c0-8.2,2.9-15.8,8.7-23
		c5.8-7.1,14.6-14.3,26.4-21.4c-5.2-5.2-8.6-8.8-10.2-10.8c-16,25-31,41.9-45.2,50.6c-14.1,8.7-23.5,13-28.3,13
		c-1.8,0-2.7-0.8-2.7-2.4c0-1.6,1.2-3.4,3.6-5.4c5.4-4.8,12.2-12.8,20.4-23.9c8.2-11.1,20.7-30,37.5-56.8c16.8-26.8,26-41.8,27.5-45
		c1.5-3.2,2.3-6.1,2.3-8.7c0-2.6-0.5-5.3-1.5-8.3c-1-2.9-1.5-4.7-1.5-5.5c0-2.8,0.8-4.2,2.5-4.2c1.7,0,3.2,0.8,4.4,2.3
		c1.2,1.5,2.3,2.5,3.3,2.8c1,0.4,3.1,0.6,6.5,0.6c3.3,0,7.5,2.2,12.8,6.5c5.2,4.3,7.8,8.9,7.8,13.8c0,4.9-2.2,9.1-6.6,12.5
		c6.4,0,12.1-0.5,17.1-1.4c5-0.9,8.2-1.3,9.6-1.3c4,0,8.5,2.3,13.5,6.8c5,4.5,7.5,8.2,7.5,11.1c0,2.9-0.5,5.7-1.5,8.3
		c6.4,2,12.4,5.1,18,9.3c3.6-8.6,5.8-12.9,6.6-12.9c0.2,0,0.3,0.3,0.3,0.9C908.2,111.8,907.2,116.6,905.2,124.2z M828.7,204.3
		c3.2-3.6,6.3-7.9,9.3-13c3-5.1,4.5-8.3,4.5-9.6c0-1.3-0.8-2-2.3-2s-3.9,1.8-7.2,5.3c-3.3,3.5-5,8.2-5,14
		C828.1,200.7,828.3,202.5,828.7,204.3z M958.9,81.3c0,2.8-0.6,4.7-1.8,5.7c-4,3.2-6.6,13.4-7.8,30.6c-1.2,17.2-1.8,31.8-1.8,43.8
		s0.7,28,2.1,48c1.4,20,2.7,34.8,3.9,44.3s1.8,17.5,1.8,24.1c0,6.6-0.5,11.9-1.5,16.1c-1,4.1-2.5,6.1-4.5,6.1c-2,0-3.9-0.8-5.7-2.4
		c-8.8-8.4-17.5-15.1-25.9-20.1c-8.5-5-14.9-10-19.2-14.8c-4.3-4.9-6.5-8.5-6.5-11c0-0.8,0.6-1.2,1.8-1.2s3.6,0.8,7.2,2.4
		s8,2.9,13.2,4c5.2,1.1,9.5,1.7,12.9,1.7c3.4,0,5.7-1.3,7.1-3.8c1.3-2.5,1.6-6.8,1-13.1c-2.2-26.4-3.3-52.5-3.3-78.4
		c0-25.9,0.2-44.9,0.8-56.9c0.5-12,0.8-18.3,0.8-18.9c0-5.6-0.7-10.8-2.1-15.6c-1.4-4.8-3.9-10.8-7.5-18c-0.8-1.4-1.2-3-1.2-5
		c0-1.9,1.5-2.8,4.5-2.8s9,4,18.2,11.8C954.3,65.9,958.9,73.7,958.9,81.3z"/>
	<path class="st3" d="M1091.5,176.7c10.8-6,27-11.9,48.8-17.7c21.7-5.8,40.5-8.7,56.5-8.7c16,0,27.8,3.5,35.3,10.4
		c7.5,6.9,11.3,13,11.3,18.5c0,3.4-1.3,6.1-3.9,8.3c-2.6,2.1-5.4,3.1-8.4,3.1s-5.5-0.2-7.5-0.6c-2-0.4-4.8-0.6-8.3-0.6
		c-3.5,0-7.1,0.8-10.8,2.3c-3.7,1.5-5.9,3.2-6.6,5.1c-0.7,1.9-1.6,3.2-2.8,3.9c-1.2,0.7-2.8,1.1-5,1.1c-2.1,0-4.9-0.2-8.3-0.6
		c-1.4,7-2.5,25.1-3.3,54.3c-0.2,7.8-2,15.6-5.4,23.4c-3.4,7.8-6.6,11.7-9.6,11.7s-9.6-2.4-19.7-7.2c-10.1-4.8-19.4-10.2-27.9-16.2
		c-8.5-6-12.8-9.6-12.8-10.8c0-0.4,0.4-0.6,1.2-0.6c0.8,0,2.7,0.7,5.7,2.1c6.8,3,14.5,4.5,23.1,4.5c8.6,0,14.8-0.9,18.6-2.7
		c3.8-1.8,6.3-4.6,7.7-8.3c1.3-3.7,2-11,2-22c0-6.2-0.6-10.7-1.8-13.5c-1.2-2.8-3.4-4.2-6.6-4.2c-4.8,0-14.8,1.6-30,4.8
		c-1.2,0.2-2.9,0.3-5.1,0.3c-2.2,0-4.4-0.8-6.5-2.6c-2.1-1.7-3.2-4-3.2-7s0.4-5,1.2-6.1c0.8-1.1,2.7-1.8,5.7-2.3
		c7.4-1,13.5-3.2,18.5-6.5c4.9-3.3,13.6-6.5,26.1-9.5c12.5-3,23-4.3,31.7-3.9c2.6-0.8,6.7-3.1,12.3-6.9c5.6-3.8,8.4-6.5,8.4-8.3
		c0-1.7-1.2-3-3.6-3.9c-2.4-0.9-6.2-1.3-11.3-1.3s-13.8,1.6-26.1,5c-12.3,3.3-25.4,7.9-39.2,13.6c-8.6,3.6-20.5,5.8-35.7,6.6
		c-5.8,12.6-10.7,24.6-14.7,36c-1,3.2-2.8,4.8-5.5,4.8s-5-2.6-6.9-7.8c-1.9-5.2-2.9-10.7-2.9-16.4s1.4-11.4,4.2-17.1
		c2.8-5.7,6.4-11.9,10.8-18.6c4.4-6.7,7.5-10.7,9.5-12.1c1.9-1.4,4.2-2.2,7-2.4c8.2-0.4,15.1-1.2,20.7-2.4
		c-6.6-10.8-9.9-19-9.9-24.6c0-5.6,1.5-10.7,4.7-15.3c3.1-4.6,5.2-6.9,6.3-6.9c1.1,0,1.4,0.8,1,2.3c-0.4,1.5-0.6,3.1-0.6,4.7
		c0,1.6,0.6,2.8,1.8,3.6c12.4-9.8,22.6-16.2,30.6-19.2c8-3,14.9-4.5,20.8-4.5c5.9,0,11.3,2.6,16.3,7.8c5,5.2,7.5,9.9,7.5,14.1
		s-1.1,7.3-3.3,9.3c-7,6.4-10.5,11.2-10.5,14.4c0,1,0.2,1.9,0.8,2.5c0.5,0.7,0.8,1.8,0.8,3.2c0,1.4-0.6,3.4-1.6,5.8
		c-1.1,2.5-2.3,4-3.6,4.5c-1.3,0.5-6.1,1.4-14.3,2.7c-8.2,1.3-15,2-20.3,2c-5.3,0-9.4-0.1-12.1-0.3c-2.2,1.6-4.2,2.4-5.9,2.4
		c-1.7,0-3.6-0.9-5.5-2.7c-9.2-0.4-17.6,0.6-25.2,3c-3.6,5-5.4,10.3-5.4,15.9C1090.9,173.8,1091.1,175.3,1091.5,176.7z M1183.9,54.3
		c10.2-0.4,18.8-0.6,25.9-0.6c7.1,0,12.5,0.7,16.1,2c3.6,1.3,6.6,3.9,9.1,7.6c2.5,3.8,3.8,6.7,3.8,8.6c0,1.9-1,3.6-3.1,5.1
		c-2.1,1.5-4.7,2.3-7.7,2.3s-5.8-0.2-8.3-0.8c-2.5-0.5-5.4-0.8-8.5-0.8c-3.2,0-7.5,0.9-12.9,2.7c-5.4,1.8-10.6,2.7-15.5,2.7
		c-4.9,0-9.5-0.3-13.8-0.9c-4.3-0.6-6.5-1.2-6.5-1.8c0-1,3.9-3.1,11.7-6.3c-20.4,2.4-38.5,7.8-54.3,16.2c-10.4,5.4-19.4,8.1-27,8.1
		c-5.2,0-10.3-1.9-15.3-5.7c-5-3.8-7.5-8.2-7.5-13.2c0-5,1.5-7.5,4.5-7.5c1.4,0,3,0.5,5,1.4c1.9,0.9,3.8,1.3,5.8,1.3
		c10,0,32.3-6,66.9-18c-14-19-21-29.8-21-32.4c0-0.8,0.4-1.2,1.2-1.2c0.8,0,2.4,1.2,5,3.4c2.5,2.3,6.2,3.5,11,3.5s10.1,0.9,15.9,2.7
		c5.8,1.8,9.6,3.4,11.4,4.7c1.8,1.3,3.5,3.6,5.1,6.8C1182.5,47.3,1183.5,50.7,1183.9,54.3z M1166.2,113.4
		c-7.2-0.4-14.2,0.6-20.9,2.8c-6.7,2.3-11.5,5.5-14.5,9.5c2,5.6,2.9,11.8,2.7,18.6c2.6,0,4.9-3.2,6.9-9.6c1-3.6,4.7-6,11.1-7.2
		C1157.9,126.3,1162.8,121.6,1166.2,113.4z"/>
</g>
</svg>
