<?xml version="1.0" encoding="utf-8"?>
<!-- Generator: Adobe Illustrator 23.0.1, SVG Export Plug-In . SVG Version: 6.00 Build 0)  -->
<svg version="1.1" id="图层_1" xmlns="http://www.w3.org/2000/svg" xmlns:xlink="http://www.w3.org/1999/xlink" x="0px" y="0px"
	 width="13px" height="13px" viewBox="0 0 13 13" style="enable-background:new 0 0 13 13;" xml:space="preserve">
<style type="text/css">
	.st0{fill:#CFCFCF;}
</style>
<path class="st0" d="M11.5,4.1c-0.3-0.6-0.7-1.1-1.2-1.5C9.3,1.7,7.9,1.2,6.5,1.2c-1.4,0-2.8,0.5-3.9,1.4C2.2,3,1.7,3.5,1.5,4.1
	C1.2,4.7,1,5.4,1,6c0,0.8,0.2,1.6,0.6,2.2C2,8.9,2.5,9.4,3.1,9.8v1.6c0,0.1,0.1,0.3,0.2,0.3c0.1,0.1,0.3,0.1,0.4,0l1.7-1
	c0.4,0.1,0.8,0.1,1.1,0.1c1.4,0,2.8-0.5,3.9-1.4c0.5-0.4,0.9-1,1.2-1.5C12.1,6.7,12.1,5.3,11.5,4.1L11.5,4.1z M5.4,10.2
	c-0.1,0-0.2,0-0.3,0l-1.2,0.7c-0.1,0-0.1,0-0.2,0c-0.1,0-0.1-0.1-0.1-0.2l0-1.2c0-0.1-0.1-0.2-0.2-0.3C2.3,8.5,1.6,7.3,1.6,6
	c0-2.2,2.3-4.2,4.9-4.2c2.6,0,4.9,2,4.9,4.2c0,2.2-2.6,4.3-5,4.2"/>
</svg>
