<?xml version="1.0" encoding="utf-8"?>
<!-- Generator: Adobe Illustrator 24.2.0, SVG Export Plug-In . SVG Version: 6.00 Build 0)  -->
<svg version="1.1" id="图层_1" xmlns="http://www.w3.org/2000/svg" xmlns:xlink="http://www.w3.org/1999/xlink" x="0px" y="0px"
	 viewBox="0 0 700 400" style="enable-background:new 0 0 700 400;" xml:space="preserve">
<style type="text/css">
	.st0{fill:#F95F5D;}
	.st1{fill:#55C7F7;}
	.st2{fill:#7ECF3B;}
	.st3{fill:#FDAF42;}
	.st4{fill:#FFFFFF;}
</style>
<path class="st0" d="M188.2,146.9h323.6V252H188.2V146.9z"/>
<path class="st1" d="M511.8,146.9V63.1c0-10.4-9.3-19.6-20.4-19.6H208.6c-11.1,0-20.4,9.3-20.4,19.6v83.8H511.8z"/>
<path class="st2" d="M188.2,252v83.8c0,10.4,9.2,19.6,20.2,19.6h283.2c11,0,20.2-9.3,20.2-19.6V252H188.2z"/>
<path class="st3" d="M314.8,43.4H387v312h-72.2V43.4z"/>
<path class="st4" d="M387,178.7v43.9h-75.7v-43.9H387 M399.1,160.7h-100c-1.7,0-4.6,1.7-4.6,4.6v69.9c0,1.7,1.7,4.6,4.6,4.6h100
	c1.7,0,4.6-1.7,4.6-4.6v-69.9C402.6,161.9,400.9,160.7,399.1,160.7z"/>
</svg>
